<?xml version="1.0" encoding="UTF-8"?>
<!DOCTYPE svg PUBLIC "-//W3C//DTD SVG 1.1//EN" "http://www.w3.org/Graphics/SVG/1.1/DTD/svg11.dtd">
<!-- Creator: CorelDRAW X7 -->
<svg xmlns="http://www.w3.org/2000/svg" xml:space="preserve" width="214px" height="58px" version="1.1" style="shape-rendering:geometricPrecision; text-rendering:geometricPrecision; image-rendering:optimizeQuality; fill-rule:evenodd; clip-rule:evenodd"
viewBox="0 0 214 58"
 xmlns:xlink="http://www.w3.org/1999/xlink">
 <defs>
  <style type="text/css">
   <![CDATA[
    .fil0 {fill:#FEFEFE;fill-rule:nonzero}
   ]]>
  </style>
 </defs>
 <g id="Layer_x0020_1">
  <metadata id="CorelCorpID_0Corel-Layer"/>
  <path class="fil0" d="M15 39c-1,0 -1,0 -2,0 0,0 -1,-1 -2,-1 0,-1 0,-2 0,-3 0,-1 0,-2 1,-2 0,-1 1,-2 2,-2 2,-1 5,-3 7,-5 2,-1 3,-3 5,-6 1,-2 2,-4 2,-6 0,-2 -1,-4 -1,-5 -1,-1 -2,-2 -4,-2 -1,-1 -2,-1 -4,-1 -1,0 -2,0 -4,0 -1,1 -2,1 -3,2 -1,1 -1,2 -1,4l-2 34c0,2 1,3 2,3 1,1 2,1 3,1 2,0 4,0 6,-1 1,-1 2,-3 2,-4 0,-1 -1,-2 -2,-3 -1,-1 -3,-2 -5,-3zm3 -39c2,0 4,0 6,1 2,0 4,1 6,2 1,2 3,3 3,5 1,2 2,4 2,7 0,3 -1,7 -4,10 -2,4 -6,7 -11,10 2,1 4,3 6,4 1,2 2,4 2,7 0,2 -1,4 -3,6 -1,2 -3,3 -5,4 -2,1 -5,1 -7,1 -3,0 -5,-1 -7,-2 -2,-1 -3,-4 -3,-7l-2 -30c-1,-4 -1,-7 -1,-8 0,-2 0,-3 1,-4 1,-1 2,-2 4,-3 1,-1 2,-1 4,-2 2,0 3,0 5,-1 1,0 3,0 4,0z"/>
  <path id="1" class="fil0" d="M47 5c1,-1 1,-2 2,-3 0,-1 1,-1 2,-1 1,-1 2,-1 3,-1 1,0 2,1 3,1 1,1 2,2 2,3 1,1 1,2 1,3 1,1 1,2 1,3l7 41c0,0 0,0 0,0 0,1 0,1 0,2 0,0 0,1 0,1 0,1 0,2 0,2 -1,1 -2,1 -3,1 -1,0 -1,0 -2,-1 0,-1 -1,-1 -1,-2l-3 -13 -13 3 -1 8c-1,1 -1,2 -1,3 -1,1 -1,2 -2,2 -1,1 -2,1 -4,1 -1,0 -2,0 -3,-1 0,-1 -1,-2 -1,-3 0,-1 0,-2 1,-4 0,-1 0,-2 0,-3 0,0 1,0 1,0l11 -42zm11 30l-6 -24 -5 27 11 -3z"/>
  <path id="2" class="fil0" d="M95 55l-11 -18c0,-1 0,-1 0,-2 0,0 0,0 0,-1l10 -26c1,-3 2,-5 2,-6 1,-1 3,-2 5,-2 1,0 2,1 3,1 1,1 1,2 1,3 0,1 0,2 0,3 -1,1 -1,2 -2,3l-13 25 10 12c1,1 1,1 2,2 1,1 1,2 1,3 1,0 1,1 1,2 0,1 0,1 0,2 -1,0 -1,1 -2,1 0,1 -1,1 -2,1 -2,0 -3,0 -3,-1 -1,-1 -2,-1 -2,-2zm-21 -44c0,-1 0,-2 0,-3 0,-2 0,-3 1,-4 0,-1 0,-2 1,-2 1,-1 2,-1 3,-1 2,0 3,0 4,0 0,1 1,2 1,3 0,1 1,2 1,3 0,2 0,3 -1,5 0,1 0,1 0,2l-1 39c0,1 0,2 -1,3 0,0 -1,1 -2,1 -1,0 -2,-1 -2,-1 -1,-1 -1,-1 -1,-2 0,-1 0,-2 0,-3l-3 -40z"/>
  <path id="3" class="fil0" d="M122 5c0,-1 1,-2 1,-3 1,-1 2,-1 3,-1 0,-1 1,-1 2,-1 2,0 3,1 4,1 1,1 1,2 2,3 0,1 1,2 1,3 0,1 0,2 0,3l7 41c0,0 0,0 0,0 1,1 1,1 1,2 0,0 0,1 0,1 0,1 0,2 -1,2 0,1 -1,1 -2,1 -1,0 -2,0 -2,-1 -1,-1 -1,-1 -1,-2l-3 -13 -13 3 -2 8c0,1 0,2 -1,3 0,1 -1,2 -2,2 0,1 -2,1 -3,1 -1,0 -2,0 -3,-1 -1,-1 -1,-2 -1,-3 0,-1 0,-2 0,-4 0,-1 1,-2 1,-3 0,0 0,0 0,0l12 -42zm10 30l-5 -24 -5 27 10 -3z"/>
  <path id="4" class="fil0" d="M151 49l-2 -35c0,-3 0,-5 0,-6 0,-1 0,-2 0,-3 1,-1 1,-2 2,-3 0,0 1,-1 3,-1 1,0 2,0 3,1 1,1 1,1 2,2 0,1 0,2 0,3 0,2 0,5 0,9l-2 33 10 -1c1,0 2,0 3,0 1,0 2,0 3,0 1,0 1,0 2,1 0,0 0,1 0,2 0,1 0,2 -1,3 -1,1 -2,1 -3,1 -1,1 -2,1 -4,1l-10 0c-2,0 -4,-1 -4,-2 -1,-1 -2,-3 -2,-5z"/>
  <path id="5" class="fil0" d="M193 57c-2,0 -5,0 -6,-2 -2,-1 -4,-3 -5,-6 -1,-2 -2,-5 -3,-8 -1,-3 -1,-6 -2,-10 0,-3 0,-6 0,-9 -1,-3 -1,-5 -1,-8 0,-1 0,-2 0,-4 1,-1 1,-2 1,-4 0,-1 1,-2 2,-3 0,-1 1,-2 3,-2 4,0 6,3 6,7 0,1 0,2 0,4 -1,4 -1,8 -1,13 0,3 0,5 0,8 0,2 0,4 0,7 1,2 1,4 2,5 0,2 1,3 2,5 1,1 3,1 4,1 2,0 4,-1 5,-2 1,-1 2,-3 3,-5 0,-2 1,-4 1,-6 1,-2 1,-5 1,-7 0,-2 0,-4 0,-5 0,-4 0,-9 0,-13 -1,-3 -1,-6 -1,-8 0,-1 0,-2 1,-2 0,-1 0,-2 1,-2 1,-1 2,-1 3,-1 1,0 2,0 3,1 1,0 1,1 2,2 0,1 0,2 0,3 0,2 0,5 0,8 -1,4 -1,8 -2,12 0,3 0,6 0,8 -1,3 -1,6 -2,9 -1,2 -2,5 -3,7 -2,2 -3,4 -6,5 -2,2 -4,2 -8,2z"/>
 </g>
</svg>
